<?xml version="1.0" encoding="UTF-8"?>
<svg width="17px" height="20px" viewBox="0 0 17 20" version="1.1" xmlns="http://www.w3.org/2000/svg" xmlns:xlink="http://www.w3.org/1999/xlink">
    <defs></defs>
    <g id="Export--iOS---Web" stroke="none" stroke-width="1" fill="none" fill-rule="evenodd">
        <g id="Icons" transform="translate(-200.000000, -122.000000)" stroke="#000000">
            <g id="Trash" transform="translate(196.323242, 120.645580)">
                <g id="ico/trash/export" transform="translate(0.000000, 0.145729)">
                    <path d="M5.56,4.18791667 L18.77,4.18791667 L18.77,20.24 L5.56,20.24 L5.56,4.18791667 Z M4,4.18791667 L20.33,4.18791667 L4,4.18791667 Z M15.02,4.10166667 L9.31,4.10166667 L9.31,1.91666667 L15.02,1.91666667 L15.02,4.10166667 Z M4,4.18791667 L20.33,4.18791667 L4,4.18791667 Z M9.31,7.48458333 L9.31,16.93375 M15.02,7.48458333 L15.02,16.93375 L15.02,7.48458333 Z M15.02,4.10166667 L9.31,4.10166667 L9.31,1.91666667 L15.02,1.91666667 L15.02,4.10166667 Z" id="Rectangle-path"></path>
                </g>
            </g>
        </g>
    </g>
</svg>